<svg xmlns="http://www.w3.org/2000/svg" fill="none" viewBox="0 0 170 32" width="150" class="mr-3 hidden md:block"><path fill="#E81E26" fill-rule="evenodd" d="M136.594.915a.31.31 0 0 1 .22-.115.214.214 0 0 1 .197.242.38.38 0 0 1-.112.242 22.5 22.5 0 0 0-5.016 14.36 22.26 22.26 0 0 0 5.015 14.269.4.4 0 0 1 .112.243.2.2 0 0 1-.007.087.2.2 0 0 1-.04.076.2.2 0 0 1-.15.079.31.31 0 0 1-.22-.117l-12.379-12.556a2.72 2.72 0 0 1-1.012-2.123 2.74 2.74 0 0 1 1.012-2.124z" clip-rule="evenodd"></path><path fill="#1E5BC6" fill-rule="evenodd" d="M147.001 0c-4.978 0-6.922 7.322-6.922 16.047S142.024 32 147.001 32c2.989 0 5.536-1.816 5.545-3.308a1.27 1.27 0 0 0-.384-.912 5.9 5.9 0 0 1-1.396-1.844 5.9 5.9 0 0 1-.579-2.245 4.16 4.16 0 0 1 1.095-2.85 4.1 4.1 0 0 1 2.738-1.32c2.535 0 4.031 2.065 4.031 4.739a11.36 11.36 0 0 1-2.173 6.336.4.4 0 0 0-.065.214c0 .13.075.24.189.24a.35.35 0 0 0 .236-.127l12.721-12.761A2.74 2.74 0 0 0 170 16.004a2.745 2.745 0 0 0-1.041-2.158L156.238 1.081a.35.35 0 0 0-.236-.128c-.115 0-.189.11-.189.243a.4.4 0 0 0 .065.216 11.35 11.35 0 0 1 2.173 6.332c0 2.673-1.49 4.743-4.031 4.743a4.1 4.1 0 0 1-2.737-1.323 4.17 4.17 0 0 1-1.096-2.85 5.877 5.877 0 0 1 1.975-4.088 1.28 1.28 0 0 0 .384-.912C152.538 1.818 149.99 0 147.001 0M2.569 22.653a10.14 10.14 0 0 1-2.563-7.09c-.058-2.575.839-5.079 2.515-7.024a7.9 7.9 0 0 1 2.624-1.974 7.8 7.8 0 0 1 3.196-.725c3.943.007 6.73 2.867 6.747 5.34a2.14 2.14 0 0 1-.463 1.575 2.11 2.11 0 0 1-1.44.772 2 2 0 0 1-1.416-.553 2.09 2.09 0 0 1-.599-1.535 2.3 2.3 0 0 1 .668-1.58c-.32-.55-.783-1-1.34-1.3a3.4 3.4 0 0 0-1.817-.406 3.93 3.93 0 0 0-1.942.568 3.96 3.96 0 0 0-1.407 1.461 10 10 0 0 0-1.315 5.35 9.75 9.75 0 0 0 1.362 5.334c.347.601.84 1.103 1.433 1.458a4.04 4.04 0 0 0 1.956.573 3.4 3.4 0 0 0 1.816-.402c.557-.3 1.02-.75 1.339-1.3a2.27 2.27 0 0 1-.667-1.57 2.11 2.11 0 0 1 .6-1.542c.382-.362.89-.56 1.415-.551a2.1 2.1 0 0 1 1.439.767 2.12 2.12 0 0 1 .463 1.57c-.013 2.487-2.803 5.335-6.747 5.343a8 8 0 0 1-3.191-.67 8.05 8.05 0 0 1-2.666-1.89m0 0a10.14 10.14 0 0 1-2.563-7.09c-.058-2.575.839-5.079 2.515-7.024a7.9 7.9 0 0 1 2.624-1.974 7.8 7.8 0 0 1 3.196-.725c3.943.007 6.73 2.867 6.747 5.34a2.14 2.14 0 0 1-.463 1.575 2.11 2.11 0 0 1-1.44.772 2 2 0 0 1-1.416-.553 2.09 2.09 0 0 1-.599-1.535 2.3 2.3 0 0 1 .668-1.58c-.32-.55-.783-1-1.34-1.3a3.4 3.4 0 0 0-1.817-.406 3.93 3.93 0 0 0-1.942.568 3.96 3.96 0 0 0-1.407 1.461 10 10 0 0 0-1.315 5.35 9.75 9.75 0 0 0 1.362 5.334c.347.601.84 1.103 1.433 1.458a4.04 4.04 0 0 0 1.956.573 3.4 3.4 0 0 0 1.816-.402c.557-.3 1.02-.75 1.339-1.3a2.27 2.27 0 0 1-.667-1.57 2.11 2.11 0 0 1 .6-1.542c.382-.362.89-.56 1.415-.551a2.1 2.1 0 0 1 1.439.767 2.12 2.12 0 0 1 .463 1.57c-.013 2.487-2.803 5.335-6.747 5.343a8 8 0 0 1-3.191-.67 8.05 8.05 0 0 1-2.666-1.89m0 0a10.14 10.14 0 0 1-2.563-7.09c-.058-2.575.839-5.079 2.515-7.024a7.9 7.9 0 0 1 2.624-1.974 7.8 7.8 0 0 1 3.196-.725c3.943.007 6.73 2.867 6.747 5.34a2.14 2.14 0 0 1-.463 1.575 2.11 2.11 0 0 1-1.44.772 2 2 0 0 1-1.416-.553 2.09 2.09 0 0 1-.599-1.535 2.3 2.3 0 0 1 .668-1.58c-.32-.55-.783-1-1.34-1.3a3.4 3.4 0 0 0-1.817-.406 3.93 3.93 0 0 0-1.942.568 3.96 3.96 0 0 0-1.407 1.461 10 10 0 0 0-1.315 5.35 9.75 9.75 0 0 0 1.362 5.334c.347.601.84 1.103 1.433 1.458a4.04 4.04 0 0 0 1.956.573 3.4 3.4 0 0 0 1.816-.402c.557-.3 1.02-.75 1.339-1.3a2.27 2.27 0 0 1-.667-1.57 2.11 2.11 0 0 1 .6-1.542c.382-.362.89-.56 1.415-.551a2.1 2.1 0 0 1 1.439.767 2.12 2.12 0 0 1 .463 1.57c-.013 2.487-2.803 5.335-6.747 5.343a8 8 0 0 1-3.191-.67 8.05 8.05 0 0 1-2.666-1.89m56.868-6.415c.254-.005.323-.065.372-.15.056-.155.078-.322.063-.487a2.46 2.46 0 0 0-.716-1.733 2.42 2.42 0 0 0-1.727-.709c-1.847 0-2.595 1.532-2.716 3.08h4.723999999999999m-36.674 2.206c-1.416.016-2.366.706-2.377 2.069a2.07 2.07 0 0 0 .602 1.571 2.04 2.04 0 0 0 1.566.593 3 3 0 0 0 2.278-1.198v-1.884a.96.96 0 0 0-.512-.765 2.9 2.9 0 0 0-1.556-.382zm53.941-.763c.006 3.654 1.539 5.226 3.044 5.23 1.72 0 2.964-1.574 2.975-4.65a7 7 0 0 0-.903-3.762 2.6 2.6 0 0 0-.929-.963 2.6 2.6 0 0 0-1.28-.373c-1.786 0-2.897 1.671-2.907 4.518m-44.751 6.955c-.553-.158-.908-.475-.907-.947.007-.21.058-.414.149-.602l.03-.068.071-.014c.321-.065.623-.203.883-.404.323-.284.455-.678.458-1.781v-5.558c-.027-.938-.238-1.265-.99-1.287q-.3.004-.597.067l-.116.02-.042-.111a1.7 1.7 0 0 1-.12-.606c.019-1.107 1.193-1.676 1.988-1.93.28-.095.575-.145.87-.15 1.082 0 1.665.784 1.917 1.795a3.7 3.7 0 0 1 1.218-1.356 3.7 3.7 0 0 1 1.714-.607 1.99 1.99 0 0 1 1.477.568 2.01 2.01 0 0 1 .606 1.47 1.86 1.86 0 0 1-.47 1.33c-.326.364-.78.584-1.266.61a1.65 1.65 0 0 1-1.065-.375 1.67 1.67 0 0 1-.577-.976c-.613.208-1.485 1-1.495 3.74v3.353c0 1.1.155 1.494.476 1.776.356.215.752.354 1.163.41l.072.014.03.068c.098.202.153.422.162.646 0 .45-.324.76-.848.911-.77.182-1.56.258-2.351.224a9.2 9.2 0 0 1-2.44-.23m10.731 0c-.554-.158-.91-.475-.909-.947.01-.21.06-.414.15-.602l.03-.068.072-.014c.319-.065.619-.203.876-.404.323-.284.456-.678.458-1.781v-5.558c-.026-.938-.237-1.265-.986-1.287a3 3 0 0 0-.599.067l-.115.02-.042-.111a1.7 1.7 0 0 1-.12-.606c.019-1.107 1.193-1.676 1.986-1.93.283-.095.578-.146.876-.15 1.081 0 1.665.784 1.916 1.798a3.7 3.7 0 0 1 1.217-1.359 3.66 3.66 0 0 1 1.715-.607 1.99 1.99 0 0 1 1.475.568 2.01 2.01 0 0 1 .606 1.469 1.86 1.86 0 0 1-.47 1.33c-.326.364-.781.584-1.266.61a1.64 1.64 0 0 1-1.065-.375 1.66 1.66 0 0 1-.576-.976c-.614.208-1.49 1-1.496 3.74v3.353c.004 1.1.158 1.495.477 1.776a3.1 3.1 0 0 0 1.164.41l.071.014.03.068c.097.202.152.422.16.646.005.45-.323.76-.846.911-.77.182-1.56.258-2.35.224a9.2 9.2 0 0 1-2.439-.229m22.708 0c-.558-.16-.918-.474-.917-.952.007-.207.057-.411.148-.598l.03-.067.07-.014a2.1 2.1 0 0 0 .883-.404c.322-.284.454-.678.46-1.781v-7.311l-1.895-.069-.034-.088a1.9 1.9 0 0 1-.145-.688 1.17 1.17 0 0 1 .344-.855 1.15 1.15 0 0 1 .854-.334h.828v-.808a6.85 6.85 0 0 1 .831-3.815 4.4 4.4 0 0 1 1.716-1.547 4.36 4.36 0 0 1 2.258-.457c2.453 0 4.514 1.186 4.527 3.088a1.77 1.77 0 0 1-.468 1.287 1.75 1.75 0 0 1-1.242.56 1.7 1.7 0 0 1-1.172-.513 1.73 1.73 0 0 1-.493-1.188c.003-.343.1-.679.28-.97a1.92 1.92 0 0 0-1.227-.372 1.5 1.5 0 0 0-1.445.731 3.85 3.85 0 0 0-.35 1.873v2.104h3.253l.038.088c.092.224.14.464.141.706.015.327-.095.647-.307.896a1.28 1.28 0 0 1-.832.444q-.363.032-.729.026c-.541 0-1.076-.04-1.475-.048v7.254c0 1.096.175 1.489.498 1.775.413.218.863.357 1.327.41l.071.014.03.069c.083.172.128.361.133.553 0 .5-.394.818-.99.985a9.7 9.7 0 0 1-2.552.243 9.3 9.3 0 0 1-2.447-.228zm38.709 0c-.556-.158-.914-.473-.912-.947.008-.21.059-.415.149-.603l.03-.067.07-.014c.32-.064.621-.204.877-.408.331-.28.459-.674.459-1.778V15.26c-.025-.938-.231-1.265-.983-1.287a3 3 0 0 0-.597.067l-.115.021-.044-.112a1.7 1.7 0 0 1-.116-.595c.019-1.113 1.193-1.686 1.983-1.941.287-.095.587-.146.89-.15 1.072 0 1.655.794 1.901 1.822a3.7 3.7 0 0 1 1.21-1.373 3.65 3.65 0 0 1 1.716-.618 1.98 1.98 0 0 1 1.478.566 2.006 2.006 0 0 1 .604 1.472c.025.487-.141.964-.464 1.328a1.83 1.83 0 0 1-1.258.613 1.66 1.66 0 0 1-1.071-.374 1.7 1.7 0 0 1-.585-.978c-.613.208-1.468.999-1.477 3.74v3.353c.004 1.1.152 1.5.452 1.776.36.211.757.35 1.169.41l.071.014.029.068c.099.204.155.426.164.652 0 .448-.321.757-.842.906a8.6 8.6 0 0 1-2.342.224 9.2 9.2 0 0 1-2.444-.229zm-24.49.415a6.4 6.4 0 0 1-2.512-.49 6.4 6.4 0 0 1-2.123-1.438 7.14 7.14 0 0 1-1.927-5.063 6.8 6.8 0 0 1 1.886-4.886 6.672 6.672 0 0 1 4.79-2.056 6.4 6.4 0 0 1 4.723 1.924 7.64 7.64 0 0 1 1.857 5.044 7.64 7.64 0 0 1-1.917 5.02 6.6 6.6 0 0 1-2.193 1.46 6.55 6.55 0 0 1-2.584.481zm-28.325-6.727a7.6 7.6 0 0 1 1.825-5.173 6.3 6.3 0 0 1 2.174-1.535 6.3 6.3 0 0 1 2.608-.499 5.1 5.1 0 0 1 2.173.394 5.1 5.1 0 0 1 1.809 1.277 5.25 5.25 0 0 1 1.283 3.432 3.97 3.97 0 0 1-.438 1.885l-.038.075h-7.99a4.03 4.03 0 0 0 1.203 2.977 3.97 3.97 0 0 0 2.988 1.127 4.27 4.27 0 0 0 3.214-1.441l.088-.113.111.088a1.24 1.24 0 0 1 .473 1.084c-.008 1.39-1.577 3.17-5.06 3.176a6.48 6.48 0 0 1-4.615-2.024 6.603 6.603 0 0 1-1.808-4.73m46.1 6.136a3.6 3.6 0 0 1-.473-1.263c-.13.153-.282.317-.514.547a4.6 4.6 0 0 1-3.243 1.334 4.16 4.16 0 0 1-3.295-1.46c-1.148-1.419-1.14-3.218-1.14-5.774v-2.463c-.023-.997-.326-1.337-1.218-1.362q-.189 0-.378.024l-.107.012-.039-.104a1.5 1.5 0 0 1-.103-.53c.028-1.19 1.483-1.827 2.337-2.01q.423-.082.853-.098a1.82 1.82 0 0 1 1.533.648 2.66 2.66 0 0 1 .453 1.656l-.022 4.206a9.3 9.3 0 0 0 .438 3.462c.136.353.384.651.705.85s.697.286 1.072.25c.409.022.815-.073 1.173-.273s.652-.499.85-.86a5.06 5.06 0 0 0 .534-2.466v-3.405c-.024-.997-.328-1.338-1.22-1.362a3 3 0 0 0-.376.024l-.109.012-.04-.104a1.5 1.5 0 0 1-.103-.53c.029-1.19 1.482-1.827 2.341-2.01q.424-.083.853-.098a1.83 1.83 0 0 1 1.537.648c.331.485.491 1.068.454 1.656 0 .482-.044 1.339-.044 4.92 0 1.513-.024 2.318-.024 2.558.022 1.032.358 1.495 1.279 1.515q.144-.001.313-.02l.106-.011.04.104q.1.25.103.518c-.035 1.162-1.49 1.628-2.339 1.804q-.395.075-.799.093h-.017a1.54 1.54 0 0 1-1.372-.637m-80.49-3.713a3.8 3.8 0 0 1 .378-1.745 3.8 3.8 0 0 1 1.133-1.374 6.22 6.22 0 0 1 3.803-1.107c.9-.011 1.792.155 2.628.488v-1.484c-.022-1.5-.568-2.347-2.19-2.366a5.4 5.4 0 0 0-1.537.278q.082.32.088.649c.01.473-.147.935-.446 1.3a1.6 1.6 0 0 1-1.242.546 1.68 1.68 0 0 1-1.191-.54 1.7 1.7 0 0 1-.452-1.234c.02-1.818 2.149-3.04 4.995-3.04 2.255 0 3.671.553 4.428 1.562.687.904.719 2.225.722 4.09v4.852c.013.94.526 1.197 1.656 1.378l.13.017-.009.137c-.01.512-.222.998-.588 1.353s-.857.55-1.365.54q-.13.012-.253.012a2.47 2.47 0 0 1-1.389-.386 2.5 2.5 0 0 1-.941-1.096 5.88 5.88 0 0 1-3.733 1.514 4.34 4.34 0 0 1-3.237-1.175 4.4 4.4 0 0 1-1.389-3.17" clip-rule="evenodd"></path></svg>
