<svg xmlns="http://www.w3.org/2000/svg" fill="currentColor" viewBox="0 0 22 24" color="#1E5BC6" height="28"><path fill="currentColor" d="M11 12.96a5.6 5.6 0 0 0 5.6-5.6V6.4a5.6 5.6 0 0 0-11.2 0v.936A5.6 5.6 0 0 0 11 12.96M7.296 6.4a3.704 3.704 0 0 1 7.408 0v.936a3.704 3.704 0 0 1-7.408 0zM17.848 15.791A27 27 0 0 0 11 14.775a27 27 0 0 0-6.848 1.016 4.69 4.69 0 0 0-3.448 4.52V23.2h20.592v-2.888a4.69 4.69 0 0 0-3.448-4.52m1.528 5.512H2.624v-.992a2.776 2.776 0 0 1 2.032-2.672A25.1 25.1 0 0 1 11 16.695c2.146.043 4.278.36 6.344.944a2.775 2.775 0 0 1 2.032 2.672z"></path></svg>
